<?xml version="1.0" encoding="UTF-8"?>
<svg xmlns="http://www.w3.org/2000/svg" xmlns:xlink="http://www.w3.org/1999/xlink" width="1540" height="1040" viewBox="-70 -970 1540 1040">
<defs>
<style type="text/css">
.l235d4 {stroke: #0067A5; fill: #0067A5; fill-opacity: 0.5;}
.l71d20 {stroke: #B3446C; fill: #B3446C; fill-opacity: 0.5;}
</style>
</defs>
<rect x="-70" y="-970" width="1540" height="1040" fill="#222222" stroke="none"/>
<g id="my_logo" transform="scale(1 -1)">
<polygon id="0x3693b2a0" class="l71d20" points="810.583671,425.055359 1003.856802,425.055359 1003.856802,833.686267 810.583671,833.686267"/>
<polygon id="0x367ef820" class="l71d20" points="678.957577,24.403364 735.072052,24.403364 735.072052,102.465197 678.957577,102.465197"/>
<polygon id="0x36979e90" class="l71d20" points="302.861824,685.932648 560.330153,685.932648 560.330153,785.263787 302.861824,785.263787"/>
<polygon id="0x36b0b6d0" class="l71d20" points="17,153.465197 1383,153.465197 1383,374.055359 17,374.055359"/>
<polygon id="0x36af5f80" class="l71d20" points="17,408.055359 138.117904,408.055359 138.117904,480.647645 17,480.647645"/>
<polygon id="0x36ab8220" class="l71d20" points="17,531.647645 138.117904,531.647645 138.117904,634.932648 17,634.932648"/>
<polygon id="0x36ad8030" class="l71d20" points="189.117904,408.055359 287.975109,408.055359 287.975109,517.569453 189.117904,517.569453"/>
<polygon id="0x36a5bd20" class="l71d20" points="189.117904,568.569453 287.975109,568.569453 287.975109,634.932648 189.117904,634.932648"/>
<polygon id="0x36a3acb0" class="l71d20" points="338.975109,408.055359 418.18569,408.055359 418.18569,500.881442 338.975109,500.881442"/>
<polygon id="0x36a1a8c0" class="l71d20" points="338.975109,551.881442 418.18569,551.881442 418.18569,634.932648 338.975109,634.932648"/>
<polygon id="0x36bb0c00" class="l71d20" points="469.18569,408.055359 597.918117,408.055359 597.918117,453.339726 469.18569,453.339726"/>
<polygon id="0x368801d0" class="l71d20" points="469.18569,504.339726 597.918117,504.339726 597.918117,634.932648 469.18569,634.932648"/>
<polygon id="0x36bee860" class="l71d20" points="648.918117,408.055359 759.583671,408.055359 759.583671,634.932648 648.918117,634.932648"/>
<polygon id="0x36bc1a80" class="l71d20" points="1054.856802,408.055359 1383,408.055359 1383,850.686267 1054.856802,850.686267"/>
<polygon id="0x36b43a90" class="l71d20" points="17,17 95.980243,17 95.980243,119.465197 17,119.465197"/>
<polygon id="0x36ab8ee0" class="l71d20" points="146.980243,17 204.337414,17 204.337414,119.465197 146.980243,119.465197"/>
<polygon id="0x36b7cf30" class="l71d20" points="255.337414,17 627.957577,17 627.957577,119.465197 255.337414,119.465197"/>
<polygon id="0x36896860" class="l71d20" points="786.072052,17 962.599814,17 962.599814,119.465197 786.072052,119.465197"/>
<polygon id="0x36b50d30" class="l71d20" points="1089.763753,17 1158.215156,17 1158.215156,119.465197 1089.763753,119.465197"/>
<polygon id="0x36baca90" class="l71d20" points="1209.215156,17 1281.079916,17 1281.079916,119.465197 1209.215156,119.465197"/>
<polygon id="0x36bb9890" class="l71d20" points="1332.079916,17 1383,17 1383,119.465197 1332.079916,119.465197"/>
<polygon id="0x36a7cc50" class="l71d20" points="17,732.912305 135.645014,732.912305 135.645014,802.263787 17,802.263787"/>
<polygon id="0x36ad53d0" class="l71d20" points="186.645014,743.688052 251.861824,743.688052 251.861824,802.263787 186.645014,802.263787"/>
<polygon id="0x36b62e20" class="l71d20" points="611.330153,668.932648 647.797693,668.932648 647.797693,802.263787 611.330153,802.263787"/>
<polygon id="0x36bf52c0" class="l71d20" points="698.797693,668.932648 759.583671,668.932648 759.583671,703.811165 698.797693,703.811165"/>
<polygon id="0x36b7c550" class="l71d20" points="698.797693,754.811165 759.583671,754.811165 759.583671,802.263787 698.797693,802.263787"/>
<polygon id="0x36b79b90" class="l235d4" points="0,0 1400,0 1400,900 0,900"/>
</g>
</svg>